<svg version="1.2" xmlns="http://www.w3.org/2000/svg" viewBox="0 0 1548 1190" width="1548" height="1190">
	<title>BK_BIG-svg</title>
	<defs>
		<clipPath clipPathUnits="userSpaceOnUse" id="cp1">
			<path d="m-9.43-188.62h7321.28v1570.24h-7321.28z"/>
		</clipPath>
	</defs>
	<style>
		.s0 { fill: #2d9bad } 
	</style>
	<g id="Clip-Path: Clip-Path: Clip-Path" clip-path="url(#cp1)">
		<g id="Clip-Path: Clip-Path">
			<g id="Clip-Path">
				<g id="Layer">
					<path id="Path 0" class="s0" d="m0 4.7c0 2.6 23.7 38.2 52.8 79 29 40.8 82.4 114.6 118.7 163.9 36.3 49.2 108.6 147.6 160.7 218.5 89 121.3 94.3 129.6 88.1 139.1-3.7 5.6-82.1 113.1-174.2 238.9-92.2 125.7-185.2 253.6-206.8 284.1-21.6 30.4-38.2 57.5-36.9 60.1 1.4 2.9 11.7 1.3 27.1-4.2 13.6-4.9 102.2-38 196.9-73.6 94.7-35.6 257.1-97.2 360.9-136.9 103.8-39.7 266.2-102.3 360.9-139 94.7-36.8 201.9-78.1 238.2-91.9 36.3-13.7 112.8-43.4 169.8-66 57.1-22.5 123.5-48.7 147.6-58.2 24.1-9.5 43.7-19.4 43.6-22-0.1-2.6-34.6-18.3-76.8-34.9-42.1-16.7-141.4-55.5-220.5-86.4-79.1-30.9-272.3-105.6-429.3-166.1-157-60.5-344.8-132.8-417.5-160.6-72.6-27.8-159.7-61-193.4-73.8-33.7-12.7-68.7-26.2-77.8-29.9-9.1-3.8-39.3-15.4-67.2-25.8-27.9-10.5-53.9-19-57.8-19-3.9 0-7.1 2.1-7.1 4.7z"/>
				</g>
			</g>
		</g>
	</g>
</svg>