<svg version="1.2" xmlns="http://www.w3.org/2000/svg" viewBox="0 0 1574 1573" width="1574" height="1573">
	<title>CSGP_BIG copy-svg</title>
	<style>
		.s0 { fill: #000000 } 
	</style>
	<g id="Layer 1">
		<path id="&lt;Compound Path&gt;" fill-rule="evenodd" class="s0" d="m167.9 1242l-166.8-524.4c-2.8-11.4 0.6-23.3 9.1-31.3l255.7-203.9c7.9-6.8 20.5-5.1 26.7 2.9q0 0.5 0.6 0.5l189.6 266.5c6.2 10.3 6.2 22.2 0.5 32.5l-297.7 459.5c-6.3 9.1-13.7 8-17.7-2.3zm836.9 330.9l-541.4-0.6c-11.4-0.6-21.6-7.4-26.2-18.2l-111.6-310.4c-3.9-10.2 1.8-21.6 12-25.6l307.4-101.3c11.4-2.9 22.8 1.1 30.2 9.6l337 430.5c6.9 8.6 3.5 15.4-7.4 16zm567.6-708.4l-167.3 524.5c-4 10.8-13.7 18.2-25.7 19.3l-323.9 12.5c-11.4 0-19.9-8.5-20.5-19.9l0.6-328.5c0.6-12 7.4-22.3 18.2-26.8l506.1-193.6c9.7-3.4 16 2.3 12.5 12.5zm-486.1-768.7l437.8 324.6c9.1 7.4 13 18.8 10.8 30.1l-88.8 318.3q0 0 0 0.6c-3.5 10.3-14.3 16-24.5 12.5l-306.9-101.9c-10.8-4-18.8-14.2-19.3-25.6l-24.5-550.1c0-10.8 6.8-14.8 15.4-8.5zm-867.7 233.5l437.8-324.1c9.7-6.2 22.2-6.8 31.9-0.5l269.9 183.9c8.5 6.3 10.8 18.8 4.5 27.9l-190.1 265.9c-7.4 9.1-18.8 13.1-30.2 10.8l-520.9-146.9c-10.3-2.8-12-10.8-2.9-17z"/>
	</g>
</svg>