<svg xmlns="http://www.w3.org/2000/svg" xmlns:xlink="http://www.w3.org/1999/xlink" version="1.1" id="Layer_1" x="0px" y="0px" width="100%" viewBox="0 0 1024 1024" enable-background="new 0 0 1024 1024" xml:space="preserve">
<path fill="#126DC8" opacity="1.000000" stroke="none" d=" M683.000000,1025.000000   C455.333344,1025.000000 228.166672,1025.000000 1.000000,1025.000000   C1.000000,683.666687 1.000000,342.333344 1.000000,1.000000   C342.333344,1.000000 683.666687,1.000000 1025.000000,1.000000   C1025.000000,342.333344 1025.000000,683.666687 1025.000000,1025.000000   C911.166687,1025.000000 797.333313,1025.000000 683.000000,1025.000000  M189.337616,721.213440   C189.590240,721.472351 189.842865,721.731262 190.026031,721.973511   C190.026031,721.973511 190.046188,721.904968 190.176163,722.517334   C190.561798,722.984192 190.947433,723.450989 191.895142,724.251587   C207.361771,746.132019 229.053589,758.559265 254.541977,764.806580   C262.955322,766.868713 271.709259,767.541260 279.598846,768.988220   C278.652191,769.144104 277.705536,769.299988 276.758881,769.455872   C283.851898,769.906433 290.879974,769.908020 297.907806,769.869385   C297.952209,769.869141 298.027283,769.307434 298.014832,769.010986   C298.011292,768.926575 297.748993,768.853088 298.293732,768.257080   C302.408173,767.820923 306.547424,767.547058 310.632965,766.921936   C335.577026,763.105347 358.051086,754.102295 376.485535,736.166809   C393.411133,719.699402 403.167389,699.396362 409.828552,677.151123   C410.294861,676.412415 411.058746,675.720581 411.183838,674.928040   C414.181000,655.935852 417.109772,636.932922 420.510071,617.263977   C420.673126,615.287476 420.978546,613.310913 420.978912,611.334412   C421.001282,484.679474 421.003357,358.024567 420.959625,231.369644   C420.958893,229.273102 420.372986,227.176758 419.712830,224.522888   C418.784393,224.029724 417.855988,223.536560 416.005127,223.036682   C389.679993,223.060150 363.354858,223.083603 336.642761,222.830658   C336.027313,222.910034 335.411835,222.989410 334.405823,223.326309   C334.261261,223.604401 334.087189,223.862610 333.431427,224.771927   C333.288177,226.418533 333.019775,228.065125 333.019562,229.711746   C333.002197,356.856293 333.002228,484.000854 333.042511,611.145386   C333.043121,613.085693 333.561371,615.025879 333.986359,617.847290   C332.655426,628.294861 331.968170,638.878662 329.795593,649.148193   C327.964478,657.803650 324.481659,666.135498 316.531555,672.177795   C316.150757,672.654358 315.769928,673.130920 315.337494,673.456543   C315.337494,673.456543 315.495911,673.437622 314.840668,673.480347   C314.246826,674.054199 313.652985,674.628052 313.072327,675.103516   C313.072327,675.103516 313.169342,675.124512 312.400879,675.086609   C311.318939,675.459290 310.199677,675.749268 309.160797,676.217529   C298.142273,681.183472 286.844879,683.740051 274.798767,680.458862   C273.543579,680.116943 272.172577,680.200012 270.954590,680.055298   C270.954590,680.055298 270.980865,680.155823 270.560822,679.681763   C269.970703,679.502869 269.380585,679.323914 268.941895,679.101685   C268.941895,679.101685 268.977966,679.255005 268.565643,678.765015   C267.984528,678.545227 267.403381,678.325439 266.932831,678.089111   C266.932831,678.089111 266.942474,678.200439 266.666870,677.582764   C265.725250,677.090515 264.783661,676.598267 263.949646,676.045654   C263.949646,676.045654 264.006714,676.155029 263.614410,675.729187   C263.293762,675.516541 262.973114,675.303894 262.028748,674.901733   C254.512054,668.532349 250.458252,660.030090 248.071976,650.807312   C245.895325,642.394714 244.562592,633.763794 242.772995,624.803955   C232.255402,626.762512 221.721756,628.742065 211.180908,630.682678   C195.898148,633.496399 180.610184,636.281921 164.738037,639.639343   C164.824432,643.680176 164.345795,647.831848 165.111847,651.739441   C166.840286,660.555908 169.184250,669.251770 171.105652,677.961731   C171.105652,677.961731 171.147415,677.791199 171.067566,678.646179   C173.474899,685.397400 175.882233,692.148621 178.155121,698.893677   C178.155121,698.893677 178.173096,698.760254 178.095169,699.559204   C179.157410,701.674561 180.219650,703.789856 181.141129,705.900269   C181.141129,705.900269 181.156891,705.760315 181.202866,706.407471   C181.551407,706.928833 181.899933,707.450195 182.097321,707.938721   C182.097321,707.938721 182.137207,707.789307 182.193954,708.432007   C182.556549,708.940002 182.919144,709.448059 183.119247,709.928894   C183.119247,709.928894 183.154968,709.768127 183.192841,710.410278   C183.529526,710.935913 183.866226,711.461548 184.070755,711.959229   C184.070755,711.959229 184.103745,711.828308 184.169189,712.462402   C184.532867,712.963440 184.896545,713.464478 185.111816,713.941956   C185.111816,713.941956 185.143158,713.794983 185.089188,714.545044   C186.272430,716.164917 187.455688,717.784851 188.614197,719.611816   C188.614197,719.611816 188.406631,719.592285 188.572769,720.117798   C188.806076,720.399719 189.039383,720.681641 189.055374,720.954651   C189.055374,720.954651 189.068848,720.737549 189.337616,721.213440  M492.981567,760.953918   C519.632019,760.915955 546.282410,760.877930 573.445251,761.248901   C577.485840,760.752625 575.911621,757.526001 575.917480,755.507141   C576.025574,718.257141 575.997192,681.006775 575.997009,643.756470   C575.996826,607.809631 575.999939,571.862854 575.984192,535.916016   C575.983276,533.924561 576.207153,531.819580 575.658203,529.965271   C574.482727,525.994934 575.996399,524.963440 579.745178,524.927979   C584.499329,524.882996 589.248596,524.332458 594.749878,523.981018   C595.499939,523.986755 596.249939,523.992493 597.680969,524.468628   C599.819092,524.644104 601.957031,524.970703 604.095276,524.972656   C641.387451,525.007141 678.679688,525.001831 715.978943,525.941833   C715.985168,601.370605 715.983032,676.799438 716.037598,752.228210   C716.039246,754.485840 716.634521,756.743164 717.194824,759.232422   C717.194824,759.232422 717.140198,759.562805 717.708496,760.146667   C719.138184,760.420410 720.567444,760.929993 721.997681,760.932800   C746.900146,760.981140 771.802734,760.982178 796.705139,760.929016   C798.134460,760.925964 799.562561,760.370605 801.236755,759.857056   C801.511902,759.598694 801.787109,759.340393 802.049500,758.133423   C802.032776,756.967163 802.001343,755.800964 802.001343,754.634705   C802.004150,580.340454 802.012939,406.046173 801.972961,231.751923   C801.972412,229.498306 801.352112,227.244812 800.845581,224.806320   C800.845581,224.806320 801.023804,224.624008 800.419373,223.998795   C799.014282,223.677963 797.609375,223.078857 796.203979,223.077515   C770.024292,223.052383 743.844543,223.098389 717.408752,223.461441   C717.278687,223.715897 717.096985,223.925552 716.424500,224.771591   C716.281006,226.916687 716.012878,229.061768 716.012268,231.206894   C715.994568,297.460999 715.985107,363.715149 716.054138,429.969177   C716.058105,433.750031 715.843018,436.125671 710.868652,436.104980   C665.590454,435.916626 620.311218,435.969330 575.010132,435.023865   C575.010132,365.601196 575.010132,296.178528 575.010132,226.755859   C574.799927,226.757401 574.589783,226.758942 574.379578,226.760483   C574.004578,228.836823 573.629517,230.913147 573.070312,232.125931   C573.006653,229.501572 572.943054,226.877213 572.290039,223.690491   C570.344116,223.470825 568.398438,223.063126 566.452148,223.060028   C541.585327,223.020309 516.718506,223.038559 491.393524,223.214859   C491.179138,223.461594 490.980316,223.720291 490.209869,223.898392   C489.811096,225.667389 489.064606,227.436142 489.063416,229.205383   C489.006805,315.189575 489.014771,401.173767 489.014771,487.157990   C489.014771,574.975220 488.998901,662.792419 489.091003,750.609558   C489.093597,753.068420 490.246033,755.526062 491.024689,758.529419   C491.048096,758.905945 491.071533,759.282410 491.334442,760.147644   C491.573181,760.415039 491.811920,760.682434 492.981567,760.953918  z"/>
    <path fill="#FEFFFF" opacity="1.000000" stroke="none" d=" M716.863586,224.090408   C717.096985,223.925552 717.278687,223.715897 717.769775,223.691956   C719.757141,224.046646 721.382996,224.271744 723.009949,224.279938   C749.014465,224.410995 775.019165,224.514343 801.023804,224.623993   C801.023804,224.624008 800.845581,224.806320 800.916748,225.368698   C800.990662,401.840546 800.990295,577.750000 801.040405,753.659485   C801.040894,755.467102 801.706970,757.274536 802.062256,759.082031   C801.787109,759.340393 801.511902,759.598694 800.653015,759.870667   C797.739502,759.851013 795.409851,759.795166 793.080017,759.787842   C767.766724,759.708496 742.453491,759.636658 717.140198,759.562805   C717.140198,759.562805 717.194824,759.232422 717.095215,758.647278   C717.006287,681.012207 717.018494,603.962341 717.015076,526.912415   C717.015015,525.597473 716.824768,524.282532 716.447388,522.729126   C713.334595,522.613892 710.497620,522.737122 707.334473,522.770203   C706.114563,522.739990 705.220764,522.799805 704.012451,522.722168   C702.346802,522.672485 700.995605,522.760315 699.363464,522.758423   C698.502625,522.731934 697.922852,522.795227 696.931824,522.721191   C679.231445,522.674133 661.942200,522.764404 644.328613,522.763245   C643.114380,522.733276 642.224609,522.794739 640.927734,522.722168   C635.905701,522.679504 631.290771,522.770874 626.302490,522.772461   C624.400391,522.739807 622.871643,522.796936 621.027283,522.717651   C619.359741,522.672180 618.007751,522.763184 616.445435,522.765503   C615.918579,522.617065 615.626343,522.676575 614.964844,522.715942   C611.264771,522.669617 607.958191,522.762756 604.328552,522.764038   C603.119202,522.734009 602.232788,522.795776 600.936157,522.719177   C594.896729,522.670837 589.267517,522.760803 583.216431,522.756958   C579.885376,522.716187 576.976257,522.769165 573.739929,522.850342   C573.294495,524.510864 573.073792,526.143127 573.072632,527.775513   C573.017517,605.247009 572.981506,682.718445 572.487671,760.095337   C545.359558,760.000427 518.687195,760.000122 491.791016,759.898071   C491.567200,759.796204 491.094971,759.658936 491.094971,759.658936   C491.071533,759.282410 491.048096,758.905945 491.007874,757.792603   C490.997833,580.694580 491.005005,404.333344 491.002380,227.972107   C491.002350,226.645050 490.868439,225.318008 490.797058,223.990952   C490.980316,223.720291 491.179138,223.461594 491.803772,223.544586   C493.023468,224.013412 493.832855,224.273773 494.642334,224.274033   C520.721375,224.282455 546.800354,224.265778 572.879395,224.252853   C572.943054,226.877213 573.006653,229.501572 573.094910,232.998962   C573.168030,236.250702 573.216492,238.629379 573.174194,241.443420   C573.144897,244.243896 573.206299,246.609055 573.196594,249.389603   C573.172180,251.205582 573.218872,252.606171 573.174927,254.372467   C573.144043,255.484207 573.203796,256.230225 573.192139,257.417908   C573.168274,260.242126 573.215881,262.624725 573.172668,265.466034   C573.141418,270.941956 573.200867,275.959137 573.190491,281.312225   C573.166016,282.100922 573.211304,282.553741 573.166138,283.467194   C573.137390,297.944000 573.199219,311.960144 573.189758,326.411530   C573.166321,328.900269 573.214172,330.953827 573.170715,333.467804   C573.143127,348.610138 573.206848,363.292053 573.198364,378.373535   C573.173462,379.851562 573.220825,380.930023 573.176941,382.449646   C573.145630,385.585541 573.205566,388.280212 573.194092,391.374390   C573.169861,392.851562 573.217102,393.929321 573.173340,395.463501   C573.143860,400.271545 573.205383,404.623108 573.195435,409.410095   C573.171448,411.899689 573.218994,413.953918 573.175659,416.467529   C573.146362,422.275513 573.207947,427.624084 573.200195,433.309265   C573.178162,434.099213 573.225281,434.552521 573.193665,435.260101   C573.153625,435.687531 573.192322,435.860687 573.383423,436.429565   C574.364014,436.883392 575.192139,436.992340 576.020325,436.992462   C622.004517,436.999573 667.988647,436.999115 713.972839,436.986237   C714.915771,436.985962 715.858704,436.831238 717.015564,436.729828   C717.015564,434.958649 717.015503,433.484039 717.015564,432.009399   C717.017578,395.688599 717.040710,359.367798 717.015259,323.046997   C716.992188,290.061432 716.916260,257.075928 716.863586,224.090408  z"/>
    <path fill="#FEFEFF" opacity="1.000000" stroke="none" d=" M165.324432,639.079468   C180.610184,636.281921 195.898148,633.496399 211.180908,630.682678   C221.721756,628.742065 232.255402,626.762512 242.772995,624.803955   C244.562592,633.763794 245.895325,642.394714 248.071976,650.807312   C250.458252,660.030090 254.512054,668.532349 262.489014,675.258972   C263.301758,675.795776 263.654236,675.975403 264.006714,676.155029   C264.006714,676.155029 263.949646,676.045654 264.039734,676.364746   C265.067383,677.189331 266.004944,677.694885 266.942474,678.200439   C266.942474,678.200439 266.932831,678.089111 267.047638,678.368469   C267.767609,678.850220 268.372803,679.052612 268.977966,679.255005   C268.977966,679.255005 268.941895,679.101685 269.031036,679.401123   C269.740417,679.852356 270.360626,680.004089 270.980865,680.155823   C270.980865,680.155823 270.954590,680.055298 271.149414,680.355347   C286.179993,685.572449 300.118103,683.701782 313.169342,675.124512   C313.169342,675.124512 313.072327,675.103516 313.355957,675.056519   C314.258331,674.485474 314.877106,673.961548 315.495911,673.437622   C315.495911,673.437622 315.337494,673.456543 315.637268,673.391907   C316.345062,672.900024 316.753113,672.472717 317.161194,672.045471   C324.481659,666.135498 327.964478,657.803650 329.795593,649.148193   C331.968170,638.878662 332.655426,628.294861 333.997192,616.946533   C334.026489,512.557434 334.058075,409.069153 334.054504,305.580872   C334.053558,278.420898 333.943512,251.260895 333.883575,224.100906   C334.087189,223.862610 334.261261,223.604401 334.702393,223.558777   C335.668274,223.892197 336.337646,223.993164 337.421204,224.173004   C339.514038,224.186249 341.192657,224.120605 343.127136,224.171326   C344.302643,224.211273 345.222321,224.134857 346.585876,224.155670   C350.971436,224.186737 354.913177,224.120575 359.170380,224.170685   C361.038422,224.210297 362.591003,224.133636 364.527893,224.152893   C366.224152,224.185806 367.536102,224.122803 369.211273,224.175568   C372.103577,224.214188 374.632690,224.137009 377.543884,224.155273   C379.230591,224.187805 380.535126,224.124878 382.203552,224.179321   C385.105652,224.220367 387.643890,224.144043 390.587402,224.167267   C392.931641,224.201981 394.870605,224.137192 397.107513,224.193146   C398.674622,224.235626 399.943817,224.157333 401.617493,224.179413   C403.957031,224.213776 405.891998,224.147797 408.228149,224.209702   C411.869537,224.337585 415.109711,224.337585 418.527466,224.337585   C418.527466,226.450027 418.527466,227.603516 418.527496,228.757004   C418.532288,355.727417 418.629578,482.697937 418.456207,609.668091   C418.425110,632.453613 415.076813,654.935791 409.302490,677.015076   C403.167389,699.396362 393.411133,719.699402 376.485535,736.166809   C358.051086,754.102295 335.577026,763.105347 310.632965,766.921936   C306.547424,767.547058 302.408173,767.820923 297.509827,768.496460   C291.253113,768.773621 285.780304,768.811401 280.307465,768.849121   C271.709259,767.541260 262.955322,766.868713 254.541977,764.806580   C229.053589,758.559265 207.361771,746.132019 191.511902,723.791016   C190.767838,722.855225 190.407013,722.380127 190.046204,721.904968   C190.046188,721.904968 190.026031,721.973511 189.991501,721.698853   C189.660934,721.195251 189.364883,720.966431 189.068848,720.737549   C189.068848,720.737549 189.055374,720.954651 189.101593,720.676208   C188.900742,720.129272 188.653687,719.860779 188.406647,719.592285   C188.406631,719.592285 188.614197,719.611816 188.445953,719.224976   C187.232864,717.157104 186.188019,715.476013 185.143158,713.794983   C185.143158,713.794983 185.111816,713.941956 185.109863,713.639404   C184.773193,712.833984 184.438461,712.331116 184.103745,711.828308   C184.103745,711.828308 184.070755,711.959229 184.072845,711.653931   C183.768295,710.821777 183.461624,710.294922 183.154968,709.768127   C183.154968,709.768127 183.119247,709.928894 183.129608,709.626709   C182.805710,708.812805 182.471466,708.301086 182.137207,707.789307   C182.137207,707.789307 182.097321,707.938721 182.114548,707.634399   C181.806824,706.806885 181.481857,706.283569 181.156891,705.760315   C181.156891,705.760315 181.141129,705.900269 181.138519,705.543396   C180.148315,703.044434 179.160706,700.902344 178.173096,698.760254   C178.173096,698.760254 178.155121,698.893677 178.149597,698.513977   C175.811844,691.353271 173.479630,684.572205 171.147415,677.791199   C171.147415,677.791199 171.105652,677.961731 171.143738,677.547119   C170.957169,675.831482 170.710114,674.533875 170.511337,673.228943   C168.777466,661.846497 167.052246,650.462769 165.324432,639.079468  z"/>
    <path fill="#035AC1" opacity="1.000000" stroke="none" d=" M490.503479,223.944672   C490.868439,225.318008 491.002350,226.645050 491.002380,227.972107   C491.005005,404.333344 490.997833,580.694580 490.926697,757.520081   C490.246033,755.526062 489.093597,753.068420 489.091003,750.609558   C488.998901,662.792419 489.014771,574.975220 489.014771,487.157990   C489.014771,401.173767 489.006805,315.189575 489.063416,229.205383   C489.064606,227.436142 489.811096,225.667389 490.503479,223.944672  z"/>
    <path fill="#1367C4" opacity="1.000000" stroke="none" d=" M572.943359,760.189941   C572.981506,682.718445 573.017517,605.247009 573.072632,527.775513   C573.073792,526.143127 573.294495,524.510864 574.032715,523.140137   C581.101807,523.601135 587.550903,523.800537 594.000000,524.000000   C589.248596,524.332458 584.499329,524.882996 579.745178,524.927979   C575.996399,524.963440 574.482727,525.994934 575.658203,529.965271   C576.207153,531.819580 575.983276,533.924561 575.984192,535.916016   C575.999939,571.862854 575.996826,607.809631 575.997009,643.756470   C575.997192,681.006775 576.025574,718.257141 575.917480,755.507141   C575.911621,757.526001 577.485840,760.752625 573.185425,760.882690   C572.925659,760.516479 572.943359,760.189941 572.943359,760.189941  z"/>
    <path fill="#003CB8" opacity="1.000000" stroke="none" d=" M802.055908,758.607788   C801.706970,757.274536 801.040894,755.467102 801.040405,753.659485   C800.990295,577.750000 800.990662,401.840546 801.004456,225.461182   C801.352112,227.244812 801.972412,229.498306 801.972961,231.751923   C802.012939,406.046173 802.004150,580.340454 802.001343,754.634705   C802.001343,755.800964 802.032776,756.967163 802.055908,758.607788  z"/>
    <path fill="#035AC1" opacity="1.000000" stroke="none" d=" M409.565521,677.083130   C415.076813,654.935791 418.425110,632.453613 418.456207,609.668091   C418.629578,482.697937 418.532288,355.727417 418.527496,228.757004   C418.527466,227.603516 418.527466,226.450027 418.527466,224.337585   C415.109711,224.337585 411.869537,224.337585 408.671112,224.144012   C411.451111,223.648087 414.189362,223.345734 416.927582,223.043396   C417.855988,223.536560 418.784393,224.029724 419.866211,225.042191   C420.019562,225.561493 419.972107,226.044159 419.755768,226.386810   C419.405579,228.379776 419.154877,230.030045 419.154633,231.680359   C419.135040,357.161957 419.131378,482.643524 419.168396,608.125122   C419.168976,610.067322 419.689728,612.009338 419.986450,614.350586   C420.020416,615.810364 420.035675,616.871155 420.050934,617.931885   C417.109772,636.932922 414.181000,655.935852 411.183838,674.928040   C411.058746,675.720581 410.294861,676.412415 409.565521,677.083130  z"/>
    <path fill="#003CB8" opacity="1.000000" stroke="none" d=" M333.657501,224.436417   C333.943512,251.260895 334.053558,278.420898 334.054504,305.580872   C334.058075,409.069153 334.026489,512.557434 333.923065,616.505920   C333.561371,615.025879 333.043121,613.085693 333.042511,611.145386   C333.002228,484.000854 333.002197,356.856293 333.019562,229.711746   C333.019775,228.065125 333.288177,226.418533 333.657501,224.436417  z"/>
    <path fill="#1E76CB" opacity="1.000000" stroke="none" d=" M420.280518,617.597900   C420.035675,616.871155 420.020416,615.810364 419.991516,613.887451   C419.975952,484.031555 419.974030,355.037872 419.972107,226.044159   C419.972107,226.044159 420.019562,225.561493 420.039825,225.320892   C420.372986,227.176758 420.958893,229.273102 420.959625,231.369644   C421.003357,358.024567 421.001282,484.679474 420.978912,611.334412   C420.978546,613.310913 420.673126,615.287476 420.280518,617.597900  z"/>
    <path fill="#003CB8" opacity="1.000000" stroke="none" d=" M594.374939,523.990479   C587.550903,523.800537 581.101807,523.601135 574.359863,523.111938   C576.976257,522.769165 579.885376,522.716187 583.704407,522.863159   C590.191650,522.994629 595.769043,522.926086 601.346436,522.857544   C602.232788,522.795776 603.119202,522.734009 604.809326,522.869751   C608.861511,522.996582 612.109924,522.925964 615.358337,522.855347   C615.626343,522.676575 615.918579,522.617065 616.908691,522.871094   C618.835876,522.994873 620.089417,522.924438 621.342896,522.854004   C622.871643,522.796936 624.400391,522.739807 626.785400,522.877197   C632.206055,522.999817 636.770447,522.927979 641.334778,522.856201   C642.224609,522.794739 643.114380,522.733276 644.815796,522.869141   C662.865906,522.997131 680.104492,522.927856 697.343018,522.858521   C697.922852,522.795227 698.502625,522.731934 699.826294,522.864258   C701.822449,522.993103 703.074707,522.926392 704.326965,522.859680   C705.220764,522.799805 706.114563,522.739990 707.793579,522.873962   C711.293579,523.034424 714.008423,523.000977 716.723206,522.967590   C716.824768,524.282532 717.015015,525.597473 717.015076,526.912415   C717.018494,603.962341 717.006287,681.012207 716.974304,758.531372   C716.634521,756.743164 716.039246,754.485840 716.037598,752.228210   C715.983032,676.799438 715.985168,601.370605 715.663452,525.199829   C713.873779,524.289490 712.399658,523.974670 710.925415,523.974182   C672.950256,523.962280 634.975159,523.983093 597.000000,523.998230   C596.249939,523.992493 595.499939,523.986755 594.374939,523.990479  z"/>
    <path fill="#003CB8" opacity="1.000000" stroke="none" d=" M716.644043,224.431000   C716.916260,257.075928 716.992188,290.061432 717.015259,323.046997   C717.040710,359.367798 717.017578,395.688599 717.015564,432.009399   C717.015503,433.484039 717.015564,434.958649 717.015564,436.729828   C715.858704,436.831238 714.915771,436.985962 713.972839,436.986237   C667.988647,436.999115 622.004517,436.999573 576.020325,436.992462   C575.192139,436.992340 574.364014,436.883392 573.582214,436.433411   C573.628601,436.041565 574.023621,435.995544 574.275818,435.985474   C574.696106,435.967438 574.864197,435.959503 575.032288,435.951538   C620.311218,435.969330 665.590454,435.916626 710.868652,436.104980   C715.843018,436.125671 716.058105,433.750031 716.054138,429.969177   C715.985107,363.715149 715.994568,297.460999 716.012268,231.206894   C716.012878,229.061768 716.281006,226.916687 716.644043,224.431000  z"/>
    <path fill="#035AC1" opacity="1.000000" stroke="none" d=" M575.021240,435.487701   C574.864197,435.959503 574.696106,435.967438 574.182617,435.797119   C573.699463,435.367950 573.511230,435.163635 573.272461,435.005859   C573.225281,434.552521 573.178162,434.099213 573.394165,432.950348   C573.527100,426.839264 573.396851,421.423706 573.266479,416.008148   C573.218994,413.953918 573.171448,411.899689 573.388306,409.054016   C573.523254,403.844055 573.393799,399.425568 573.264404,395.007050   C573.217102,393.929321 573.169861,392.851562 573.381592,391.041199   C573.516479,387.541870 573.392334,384.775177 573.268188,382.008484   C573.220825,380.930023 573.173462,379.851562 573.392212,378.013306   C573.779480,365.453613 573.955933,353.653778 573.982971,341.853638   C573.989746,338.905457 573.515320,335.956146 573.262024,333.007355   C573.214172,330.953827 573.166321,328.900269 573.384766,326.051666   C573.773254,314.787567 573.969849,304.318573 573.976990,293.849457   C573.979492,290.235321 573.510376,286.620880 573.256653,283.006561   C573.211304,282.553741 573.166016,282.100922 573.385132,280.954041   C573.520874,275.175751 573.392151,270.091522 573.263428,265.007324   C573.215881,262.624725 573.168274,260.242126 573.358887,257.199463   C573.486572,255.695190 573.376099,254.850967 573.265625,254.006744   C573.218872,252.606171 573.172180,251.205582 573.382202,249.065735   C573.514282,245.886993 573.389648,243.447525 573.264954,241.008072   C573.216492,238.629379 573.168030,236.250702 573.187012,233.430756   C573.629517,230.913147 574.004578,228.836823 574.379578,226.760483   C574.589783,226.758942 574.799927,226.757401 575.010132,226.755859   C575.010132,296.178528 575.010132,365.601196 575.021240,435.487701  z"/>
    <path fill="#1367C4" opacity="1.000000" stroke="none" d=" M597.340454,524.233398   C634.975159,523.983093 672.950256,523.962280 710.925415,523.974182   C712.399658,523.974670 713.873779,524.289490 715.659912,524.731506   C678.679688,525.001831 641.387451,525.007141 604.095276,524.972656   C601.957031,524.970703 599.819092,524.644104 597.340454,524.233398  z"/>
    <path fill="#003CB8" opacity="1.000000" stroke="none" d=" M717.424316,759.854736   C742.453491,759.636658 767.766724,759.708496 793.080017,759.787842   C795.409851,759.795166 797.739502,759.851013 800.530273,759.978271   C799.562561,760.370605 798.134460,760.925964 796.705139,760.929016   C771.802734,760.982178 746.900146,760.981140 721.997681,760.932800   C720.567444,760.929993 719.138184,760.420410 717.424316,759.854736  z"/>
    <path fill="#003CB8" opacity="1.000000" stroke="none" d=" M800.721558,224.311401   C775.019165,224.514343 749.014465,224.410995 723.009949,224.279938   C721.382996,224.271744 719.757141,224.046646 717.897766,223.525940   C743.844543,223.098389 770.024292,223.052383 796.203979,223.077515   C797.609375,223.078857 799.014282,223.677963 800.721558,224.311401  z"/>
    <path fill="#003CB8" opacity="1.000000" stroke="none" d=" M572.584717,223.971680   C546.800354,224.265778 520.721375,224.282455 494.642334,224.274033   C493.832855,224.273773 493.023468,224.013412 492.032837,223.458191   C516.718506,223.038559 541.585327,223.020309 566.452148,223.060028   C568.398438,223.063126 570.344116,223.470825 572.584717,223.971680  z"/>
    <path fill="#003CB8" opacity="1.000000" stroke="none" d=" M572.487671,760.095337   C572.943359,760.189941 572.925659,760.516479 572.929260,760.678223   C546.282410,760.877930 519.632019,760.915955 492.501770,760.714722   C492.021942,760.475586 492.014832,759.999878 492.014832,759.999878   C518.687195,760.000122 545.359558,760.000427 572.487671,760.095337  z"/>
    <path fill="#003CB8" opacity="1.000000" stroke="none" d=" M416.466370,223.040039   C414.189362,223.345734 411.451111,223.648087 408.269958,224.016129   C405.891998,224.147797 403.957031,224.213776 401.178955,224.115250   C399.160431,223.991287 397.985016,224.031845 396.809570,224.072388   C394.870605,224.137192 392.931641,224.201981 390.126038,224.102356   C386.786194,223.979279 384.312927,224.020615 381.839691,224.061951   C380.535126,224.124878 379.230591,224.187805 377.084290,224.091965   C373.777740,223.975403 371.312897,224.017593 368.848053,224.059784   C367.536102,224.122803 366.224152,224.185806 364.089722,224.090759   C361.796448,223.973267 360.325684,224.013824 358.854889,224.054398   C354.913177,224.120575 350.971436,224.186737 346.178467,224.100357   C344.508575,223.983536 343.689941,224.019241 342.871307,224.054947   C341.192657,224.120605 339.514038,224.186249 337.426819,223.926254   C337.018219,223.600601 337.029724,223.107056 337.029724,223.107056   C363.354858,223.083603 389.679993,223.060150 416.466370,223.040039  z"/>
    <path fill="#035AC1" opacity="1.000000" stroke="none" d=" M312.785095,675.105591   C300.118103,683.701782 286.179993,685.572449 271.099792,680.370667   C272.172577,680.200012 273.543579,680.116943 274.798767,680.458862   C286.844879,683.740051 298.142273,681.183472 309.160797,676.217529   C310.199677,675.749268 311.318939,675.459290 312.785095,675.105591  z"/>
    <path fill="#035AC1" opacity="1.000000" stroke="none" d=" M165.031235,639.359375   C167.052246,650.462769 168.777466,661.846497 170.511337,673.228943   C170.710114,674.533875 170.957169,675.831482 171.229797,677.564575   C169.184250,669.251770 166.840286,660.555908 165.111847,651.739441   C164.345795,647.831848 164.824432,643.680176 165.031235,639.359375  z"/>
    <path fill="#035AC1" opacity="1.000000" stroke="none" d=" M171.107483,678.218689   C173.479630,684.572205 175.811844,691.353271 178.216827,698.517090   C175.882233,692.148621 173.474899,685.397400 171.107483,678.218689  z"/>
    <path fill="#003CB8" opacity="1.000000" stroke="none" d=" M279.953156,768.918701   C285.780304,768.811401 291.253113,768.773621 297.165649,768.755249   C297.748993,768.853088 298.011292,768.926575 298.014832,769.010986   C298.027283,769.307434 297.952209,769.869141 297.907806,769.869385   C290.879974,769.908020 283.851898,769.906433 276.758881,769.455872   C277.705536,769.299988 278.652191,769.144104 279.953156,768.918701  z"/>
    <path fill="#035AC1" opacity="1.000000" stroke="none" d=" M178.134125,699.159729   C179.160706,700.902344 180.148315,703.044434 181.208893,705.545898   C180.219650,703.789856 179.157410,701.674561 178.134125,699.159729  z"/>
    <path fill="#035AC1" opacity="1.000000" stroke="none" d=" M185.116180,714.170044   C186.188019,715.476013 187.232864,717.157104 188.458328,719.121460   C187.455688,717.784851 186.272430,716.164917 185.116180,714.170044  z"/>
    <path fill="#035AC1" opacity="1.000000" stroke="none" d=" M266.804688,677.891602   C266.004944,677.694885 265.067383,677.189331 263.985962,676.394897   C264.783661,676.598267 265.725250,677.090515 266.804688,677.891602  z"/>
    <path fill="#035AC1" opacity="1.000000" stroke="none" d=" M336.836243,222.968857   C337.029724,223.107056 337.018219,223.600601 337.012604,223.847351   C336.337646,223.993164 335.668274,223.892197 334.897644,223.430008   C335.411835,222.989410 336.027313,222.910034 336.836243,222.968857  z"/>
    <path fill="#035AC1" opacity="1.000000" stroke="none" d=" M315.168274,673.458984   C314.877106,673.961548 314.258331,674.485474 313.349365,675.105713   C313.652985,674.628052 314.246826,674.054199 315.168274,673.458984  z"/>
    <path fill="#035AC1" opacity="1.000000" stroke="none" d=" M268.771790,679.010010   C268.372803,679.052612 267.767609,678.850220 266.992371,678.376709   C267.403381,678.325439 267.984528,678.545227 268.771790,679.010010  z"/>
    <path fill="#035AC1" opacity="1.000000" stroke="none" d=" M270.770844,679.918823   C270.360626,680.004089 269.740417,679.852356 268.955322,679.422791   C269.380585,679.323914 269.970703,679.502869 270.770844,679.918823  z"/>
    <path fill="#035AC1" opacity="1.000000" stroke="none" d=" M181.179886,706.083862   C181.481857,706.283569 181.806824,706.806885 182.190125,707.650879   C181.899933,707.450195 181.551407,706.928833 181.179886,706.083862  z"/>
    <path fill="#035AC1" opacity="1.000000" stroke="none" d=" M182.165588,708.110657   C182.471466,708.301086 182.805710,708.812805 183.210846,709.640320   C182.919144,709.448059 182.556549,708.940002 182.165588,708.110657  z"/>
    <path fill="#035AC1" opacity="1.000000" stroke="none" d=" M183.173889,710.089233   C183.461624,710.294922 183.768295,710.821777 184.138931,711.667847   C183.866226,711.461548 183.529526,710.935913 183.173889,710.089233  z"/>
    <path fill="#035AC1" opacity="1.000000" stroke="none" d=" M184.136475,712.145386   C184.438461,712.331116 184.773193,712.833984 185.184082,713.651123   C184.896545,713.464478 184.532867,712.963440 184.136475,712.145386  z"/>
    <path fill="#035AC1" opacity="1.000000" stroke="none" d=" M190.111176,722.211182   C190.407013,722.380127 190.767838,722.855225 191.230865,723.624146   C190.947433,723.450989 190.561798,722.984192 190.111176,722.211182  z"/>
    <path fill="#035AC1" opacity="1.000000" stroke="none" d=" M316.846375,672.111633   C316.753113,672.472717 316.345062,672.900024 315.663086,673.467407   C315.769928,673.130920 316.150757,672.654358 316.846375,672.111633  z"/>
    <path fill="#035AC1" opacity="1.000000" stroke="none" d=" M188.489716,719.855042   C188.653687,719.860779 188.900742,720.129272 189.210236,720.680664   C189.039383,720.681641 188.806076,720.399719 188.489716,719.855042  z"/>
    <path fill="#035AC1" opacity="1.000000" stroke="none" d=" M189.203232,720.975464   C189.364883,720.966431 189.660934,721.195251 190.026230,721.707153   C189.842865,721.731262 189.590240,721.472351 189.203232,720.975464  z"/>
    <path fill="#035AC1" opacity="1.000000" stroke="none" d=" M491.791016,759.898071   C492.014832,759.999878 492.021942,760.475586 492.036285,760.712708   C491.811920,760.682434 491.573181,760.415039 491.214722,759.903320   C491.094971,759.658936 491.567200,759.796204 491.791016,759.898071  z"/>
    <path fill="#035AC1" opacity="1.000000" stroke="none" d=" M263.810547,675.942139   C263.654236,675.975403 263.301758,675.795776 262.800842,675.353760   C262.973114,675.303894 263.293762,675.516541 263.810547,675.942139  z"/>
    <path fill="#1367C4" opacity="1.000000" stroke="none" d=" M696.931824,522.721191   C680.104492,522.927856 662.865906,522.997131 645.140198,522.960571   C661.942200,522.764404 679.231445,522.674133 696.931824,522.721191  z"/>
    <path fill="#126DC8" opacity="1.000000" stroke="none" d=" M573.170715,333.467804   C573.515320,335.956146 573.989746,338.905457 573.982971,341.853638   C573.955933,353.653778 573.779480,365.453613 573.464478,377.613739   C573.206848,363.292053 573.143127,348.610138 573.170715,333.467804  z"/>
    <path fill="#126DC8" opacity="1.000000" stroke="none" d=" M573.166138,283.467194   C573.510376,286.620880 573.979492,290.235321 573.976990,293.849457   C573.969849,304.318573 573.773254,314.787567 573.456055,325.616455   C573.199219,311.960144 573.137390,297.944000 573.166138,283.467194  z"/>
    <path fill="#126DC8" opacity="1.000000" stroke="none" d=" M573.175659,416.467529   C573.396851,421.423706 573.527100,426.839264 573.463379,432.613739   C573.207947,427.624084 573.146362,422.275513 573.175659,416.467529  z"/>
    <path fill="#1367C4" opacity="1.000000" stroke="none" d=" M600.936157,522.719177   C595.769043,522.926086 590.191650,522.994629 584.126282,522.956970   C589.267517,522.760803 594.896729,522.670837 600.936157,522.719177  z"/>
    <path fill="#126DC8" opacity="1.000000" stroke="none" d=" M573.172607,265.466034   C573.392151,270.091522 573.520874,275.175751 573.454956,280.618164   C573.200867,275.959137 573.141418,270.941956 573.172607,265.466034  z"/>
    <path fill="#1367C4" opacity="1.000000" stroke="none" d=" M640.927734,522.722168   C636.770447,522.927979 632.206055,522.999817 627.158752,522.966919   C631.290771,522.770874 635.905701,522.679504 640.927734,522.722168  z"/>
    <path fill="#126DC8" opacity="1.000000" stroke="none" d=" M573.173340,395.463501   C573.393799,399.425568 573.523254,403.844055 573.459839,408.618652   C573.205383,404.623108 573.143860,400.271545 573.173340,395.463501  z"/>
    <path fill="#1367C4" opacity="1.000000" stroke="none" d=" M614.964844,522.715942   C612.109924,522.925964 608.861511,522.996582 605.132324,522.961548   C607.958191,522.762756 611.264771,522.669617 614.964844,522.715942  z"/>
    <path fill="#126DC8" opacity="1.000000" stroke="none" d=" M573.176941,382.449646   C573.392334,384.775177 573.516479,387.541870 573.453064,390.641724   C573.205566,388.280212 573.145630,385.585541 573.176941,382.449646  z"/>
    <path fill="#1367C4" opacity="1.000000" stroke="none" d=" M716.447388,522.729126   C714.008423,523.000977 711.293579,523.034424 708.119751,522.964050   C710.497620,522.737122 713.334595,522.613892 716.447388,522.729126  z"/>
    <path fill="#126DC8" opacity="1.000000" stroke="none" d=" M573.174194,241.443420   C573.389648,243.447525 573.514282,245.886993 573.453369,248.650330   C573.206299,246.609055 573.144897,244.243896 573.174194,241.443420  z"/>
    <path fill="#1367C4" opacity="1.000000" stroke="none" d=" M621.027283,522.717651   C620.089417,522.924438 618.835876,522.994873 617.119141,522.959717   C618.007751,522.763184 619.359741,522.672180 621.027283,522.717651  z"/>
    <path fill="#1367C4" opacity="1.000000" stroke="none" d=" M704.012451,522.722168   C703.074707,522.926392 701.822449,522.993103 700.107300,522.953979   C700.995605,522.760315 702.346802,522.672485 704.012451,522.722168  z"/>
    <path fill="#126DC8" opacity="1.000000" stroke="none" d=" M573.174927,254.372467   C573.376099,254.850967 573.486572,255.695190 573.430298,256.757843   C573.203796,256.230225 573.144043,255.484207 573.174927,254.372467  z"/>
    <path fill="#126DC8" opacity="1.000000" stroke="none" d=" M573.193726,435.260101   C573.511230,435.163635 573.699463,435.367950 573.930420,435.807190   C574.023621,435.995544 573.628601,436.041565 573.429810,436.037720   C573.192322,435.860687 573.153625,435.687531 573.193726,435.260101  z"/>
    <path fill="#035AC1" opacity="1.000000" stroke="none" d=" M382.203552,224.179321   C384.312927,224.020615 386.786194,223.979279 389.720795,224.002838   C387.643890,224.144043 385.105652,224.220367 382.203552,224.179321  z"/>
    <path fill="#035AC1" opacity="1.000000" stroke="none" d=" M369.211273,224.175568   C371.312897,224.017593 373.777740,223.975403 376.702179,223.996521   C374.632690,224.137009 372.103577,224.214188 369.211273,224.175568  z"/>
    <path fill="#035AC1" opacity="1.000000" stroke="none" d=" M359.170380,224.170685   C360.325684,224.013824 361.796448,223.973267 363.705383,223.994843   C362.591003,224.133636 361.038422,224.210297 359.170380,224.170685  z"/>
    <path fill="#035AC1" opacity="1.000000" stroke="none" d=" M397.107513,224.193146   C397.985016,224.031845 399.160431,223.991287 400.774414,224.014893   C399.943817,224.157333 398.674622,224.235626 397.107513,224.193146  z"/>
    <path fill="#035AC1" opacity="1.000000" stroke="none" d=" M343.127136,224.171326   C343.689941,224.019241 344.508575,223.983536 345.734619,224.003128   C345.222321,224.134857 344.302643,224.211273 343.127136,224.171326  z"/>
    <path fill="#003CB8" opacity="1.000000" stroke="none" d=" M419.755768,226.386810   C419.974030,355.037872 419.975952,484.031555 419.972809,613.488403   C419.689728,612.009338 419.168976,610.067322 419.168396,608.125122   C419.131378,482.643524 419.135040,357.161957 419.154633,231.680359   C419.154877,230.030045 419.405579,228.379776 419.755768,226.386810  z"/>
</svg>